{
	"asset":{
		"generator":"Khronos glTF Blender I/O v4.2.69",
		"version":"2.0"
	},
	"extensionsUsed":[
		"KHR_materials_specular"
	],
	"scene":0,
	"scenes":[
		{
			"name":"Scene",
			"nodes":[
				0,
				1,
				2,
				3,
				4,
				5
			]
		}
	],
	"nodes":[
		{
			"mesh":0,
			"name":"terreno.005",
			"rotation":[
				0.7071068286895752,
				0,
				0,
				0.7071068286895752
			],
			"translation":[
				88.4482650756836,
				0,
				0
			]
		},
		{
			"mesh":1,
			"name":"solera.005",
			"rotation":[
				0.7071068286895752,
				0,
				0,
				0.7071068286895752
			],
			"translation":[
				88.4482650756836,
				0,
				0
			]
		},
		{
			"mesh":2,
			"name":"replantillo.005",
			"rotation":[
				0.7071068286895752,
				0,
				0,
				0.7071068286895752
			],
			"translation":[
				88.4482650756836,
				0,
				0
			]
		},
		{
			"mesh":3,
			"name":"estructura de solera.005",
			"rotation":[
				0.7071068286895752,
				0,
				0,
				0.7071068286895752
			],
			"translation":[
				88.4482650756836,
				0,
				0
			]
		},
		{
			"mesh":4,
			"name":"CASA MANUAL BORRADOR",
			"rotation":[
				0.7071068286895752,
				0,
				0,
				0.7071068286895752
			],
			"translation":[
				8.648232460021973,
				0,
				2.59018874168396
			]
		},
		{
			"mesh":5,
			"name":"bastones.005",
			"rotation":[
				0.7071068286895752,
				0,
				0,
				0.7071068286895752
			],
			"translation":[
				88.4482650756836,
				0,
				0
			]
		}
	],
	"materials":[
		{
			"doubleSided":true,
			"name":"Material.001",
			"pbrMetallicRoughness":{
				"baseColorFactor":[
					0.034511469304561615,
					0.03022756800055504,
					0.03022756800055504,
					1
				],
				"metallicFactor":0,
				"roughnessFactor":0.28740155696868896
			}
		},
		{
			"doubleSided":true,
			"extensions":{
				"KHR_materials_specular":{
					"specularFactor":0.6600000262260437
				}
			},
			"name":"Blacktop_Old_01",
			"pbrMetallicRoughness":{
				"baseColorTexture":{
					"index":0
				},
				"metallicFactor":0
			}
		},
		{
			"doubleSided":true,
			"extensions":{
				"KHR_materials_specular":{
					"specularFactor":0.6600000262260437
				}
			},
			"name":"Color_M04",
			"pbrMetallicRoughness":{
				"baseColorFactor":[
					0.556863009929657,
					0.556863009929657,
					0.556863009929657,
					1
				],
				"metallicFactor":0
			}
		},
		{
			"doubleSided":true,
			"extensions":{
				"KHR_materials_specular":{
					"specularFactor":0.6600000262260437
				}
			},
			"name":"FrontColor",
			"pbrMetallicRoughness":{
				"baseColorFactor":[
					0.45447319746017456,
					0.45447319746017456,
					0.45447319746017456,
					1
				],
				"metallicFactor":0.8267716765403748,
				"roughnessFactor":0.4724409580230713
			}
		},
		{
			"doubleSided":true,
			"extensions":{
				"KHR_materials_specular":{
					"specularFactor":0.6600000262260437
				}
			},
			"name":"Block_Concrete_Cinder.001",
			"pbrMetallicRoughness":{
				"baseColorTexture":{
					"index":1
				},
				"metallicFactor":0
			}
		},
		{
			"doubleSided":true,
			"extensions":{
				"KHR_materials_specular":{
					"specularFactor":0.6600000262260437
				}
			},
			"name":"FrontColor.002",
			"pbrMetallicRoughness":{
				"metallicFactor":0
			}
		},
		{
			"doubleSided":true,
			"extensions":{
				"KHR_materials_specular":{
					"specularFactor":0.6600000262260437
				}
			},
			"name":"Asphalt_New.001",
			"pbrMetallicRoughness":{
				"baseColorTexture":{
					"index":2
				},
				"metallicFactor":0
			}
		}
	],
	"meshes":[
		{
			"name":"terreno.005",
			"primitives":[
				{
					"attributes":{
						"POSITION":0,
						"NORMAL":1,
						"TEXCOORD_0":2
					},
					"indices":3,
					"material":0
				}
			]
		},
		{
			"name":"solera.005",
			"primitives":[
				{
					"attributes":{
						"POSITION":4,
						"NORMAL":5,
						"TEXCOORD_0":6
					},
					"indices":7,
					"material":1
				}
			]
		},
		{
			"name":"replantillo.005",
			"primitives":[
				{
					"attributes":{
						"POSITION":8,
						"NORMAL":9,
						"TEXCOORD_0":10
					},
					"indices":11,
					"material":2
				}
			]
		},
		{
			"name":"estructura de solera.005",
			"primitives":[
				{
					"attributes":{
						"POSITION":12,
						"NORMAL":13,
						"TEXCOORD_0":14
					},
					"indices":15,
					"material":3
				}
			]
		},
		{
			"name":"CASA MANUAL BORRADOR",
			"primitives":[
				{
					"attributes":{
						"POSITION":16,
						"NORMAL":17,
						"TEXCOORD_0":18
					},
					"indices":19,
					"material":4
				},
				{
					"attributes":{
						"POSITION":20,
						"NORMAL":21,
						"TEXCOORD_0":22
					},
					"indices":23,
					"material":5
				},
				{
					"attributes":{
						"POSITION":24,
						"NORMAL":25,
						"TEXCOORD_0":26
					},
					"indices":27,
					"material":6
				}
			]
		},
		{
			"name":"bastones.005",
			"primitives":[
				{
					"attributes":{
						"POSITION":28,
						"NORMAL":29,
						"TEXCOORD_0":30
					},
					"indices":31,
					"material":3
				}
			]
		}
	],
	"textures":[
		{
			"sampler":0,
			"source":0
		},
		{
			"sampler":0,
			"source":1
		},
		{
			"sampler":0,
			"source":2
		}
	],
	"images":[
		{
			"mimeType":"image/jpeg",
			"name":"Blacktop_Old_01",
			"uri":"Blacktop_Old_01.jpg"
		},
		{
			"mimeType":"image/jpeg",
			"name":"Block_Concrete_Cinder",
			"uri":"Block_Concrete_Cinder.jpg"
		},
		{
			"mimeType":"image/jpeg",
			"name":"Asphalt_New",
			"uri":"Asphalt_New.jpg"
		}
	],
	"accessors":[
		{
			"bufferView":0,
			"componentType":5126,
			"count":237,
			"max":[
				13.529999732971191,
				0,
				0
			],
			"min":[
				0,
				-16.270000457763672,
				-0.7844110131263733
			],
			"type":"VEC3"
		},
		{
			"bufferView":1,
			"componentType":5126,
			"count":237,
			"type":"VEC3"
		},
		{
			"bufferView":2,
			"componentType":5126,
			"count":237,
			"type":"VEC2"
		},
		{
			"bufferView":3,
			"componentType":5123,
			"count":519,
			"type":"SCALAR"
		},
		{
			"bufferView":4,
			"componentType":5126,
			"count":163,
			"max":[
				10.343000411987305,
				-1.721060037612915,
				-0.18441100418567657
			],
			"min":[
				3.117990016937256,
				-11.896100044250488,
				-0.3844110071659088
			],
			"type":"VEC3"
		},
		{
			"bufferView":5,
			"componentType":5126,
			"count":163,
			"type":"VEC3"
		},
		{
			"bufferView":6,
			"componentType":5126,
			"count":163,
			"type":"VEC2"
		},
		{
			"bufferView":7,
			"componentType":5123,
			"count":324,
			"type":"SCALAR"
		},
		{
			"bufferView":8,
			"componentType":5126,
			"count":163,
			"max":[
				10.343000411987305,
				-1.721060037612915,
				-0.08441139757633209
			],
			"min":[
				3.117990016937256,
				-11.896100044250488,
				-0.18441100418567657
			],
			"type":"VEC3"
		},
		{
			"bufferView":9,
			"componentType":5126,
			"count":163,
			"type":"VEC3"
		},
		{
			"bufferView":10,
			"componentType":5126,
			"count":163,
			"type":"VEC2"
		},
		{
			"bufferView":11,
			"componentType":5123,
			"count":324,
			"type":"SCALAR"
		},
		{
			"bufferView":12,
			"componentType":5126,
			"count":3251498,
			"max":[
				10.312999725341797,
				-1.7510600090026855,
				-0.21441100537776947
			],
			"min":[
				3.1479899883270264,
				-11.866100311279297,
				-0.3544110059738159
			],
			"type":"VEC3"
		},
		{
			"bufferView":13,
			"componentType":5126,
			"count":3251498,
			"type":"VEC3"
		},
		{
			"bufferView":14,
			"componentType":5126,
			"count":3251498,
			"type":"VEC2"
		},
		{
			"bufferView":15,
			"componentType":5125,
			"count":4982304,
			"type":"SCALAR"
		},
		{
			"bufferView":16,
			"componentType":5126,
			"count":692495,
			"max":[
				90.03060150146484,
				-4.431389808654785,
				-0.009999999776482582
			],
			"min":[
				83.02970123291016,
				-14.381400108337402,
				-2.4001998901367188
			],
			"type":"VEC3"
		},
		{
			"bufferView":17,
			"componentType":5126,
			"count":692495,
			"type":"VEC3"
		},
		{
			"bufferView":18,
			"componentType":5126,
			"count":692495,
			"type":"VEC2"
		},
		{
			"bufferView":19,
			"componentType":5125,
			"count":1240044,
			"type":"SCALAR"
		},
		{
			"bufferView":20,
			"componentType":5126,
			"count":16,
			"max":[
				87.1156005859375,
				-5.457409858703613,
				-0.9000089764595032
			],
			"min":[
				86.99559783935547,
				-5.467410087585449,
				-1.0000100135803223
			],
			"type":"VEC3"
		},
		{
			"bufferView":21,
			"componentType":5126,
			"count":16,
			"type":"VEC3"
		},
		{
			"bufferView":22,
			"componentType":5126,
			"count":16,
			"type":"VEC2"
		},
		{
			"bufferView":23,
			"componentType":5123,
			"count":24,
			"type":"SCALAR"
		},
		{
			"bufferView":24,
			"componentType":5126,
			"count":2642,
			"max":[
				90.03060150146484,
				-4.431389808654785,
				0
			],
			"min":[
				83.02970123291016,
				-14.381400108337402,
				-2.400059938430786
			],
			"type":"VEC3"
		},
		{
			"bufferView":25,
			"componentType":5126,
			"count":2642,
			"type":"VEC3"
		},
		{
			"bufferView":26,
			"componentType":5126,
			"count":2642,
			"type":"VEC2"
		},
		{
			"bufferView":27,
			"componentType":5123,
			"count":4062,
			"type":"SCALAR"
		},
		{
			"bufferView":28,
			"componentType":5126,
			"count":351480,
			"max":[
				10.30519962310791,
				-1.9043300151824951,
				-0.2680720090866089
			],
			"min":[
				3.2749099731445312,
				-11.758399963378906,
				-2.7891600131988525
			],
			"type":"VEC3"
		},
		{
			"bufferView":29,
			"componentType":5126,
			"count":351480,
			"type":"VEC3"
		},
		{
			"bufferView":30,
			"componentType":5126,
			"count":351480,
			"type":"VEC2"
		},
		{
			"bufferView":31,
			"componentType":5125,
			"count":544188,
			"type":"SCALAR"
		}
	],
	"bufferViews":[
		{
			"buffer":0,
			"byteLength":2844,
			"byteOffset":0,
			"target":34962
		},
		{
			"buffer":0,
			"byteLength":2844,
			"byteOffset":2844,
			"target":34962
		},
		{
			"buffer":0,
			"byteLength":1896,
			"byteOffset":5688,
			"target":34962
		},
		{
			"buffer":0,
			"byteLength":1038,
			"byteOffset":7584,
			"target":34963
		},
		{
			"buffer":0,
			"byteLength":1956,
			"byteOffset":8624,
			"target":34962
		},
		{
			"buffer":0,
			"byteLength":1956,
			"byteOffset":10580,
			"target":34962
		},
		{
			"buffer":0,
			"byteLength":1304,
			"byteOffset":12536,
			"target":34962
		},
		{
			"buffer":0,
			"byteLength":648,
			"byteOffset":13840,
			"target":34963
		},
		{
			"buffer":0,
			"byteLength":1956,
			"byteOffset":14488,
			"target":34962
		},
		{
			"buffer":0,
			"byteLength":1956,
			"byteOffset":16444,
			"target":34962
		},
		{
			"buffer":0,
			"byteLength":1304,
			"byteOffset":18400,
			"target":34962
		},
		{
			"buffer":0,
			"byteLength":648,
			"byteOffset":19704,
			"target":34963
		},
		{
			"buffer":0,
			"byteLength":39017976,
			"byteOffset":20352,
			"target":34962
		},
		{
			"buffer":0,
			"byteLength":39017976,
			"byteOffset":39038328,
			"target":34962
		},
		{
			"buffer":0,
			"byteLength":26011984,
			"byteOffset":78056304,
			"target":34962
		},
		{
			"buffer":0,
			"byteLength":19929216,
			"byteOffset":104068288,
			"target":34963
		},
		{
			"buffer":0,
			"byteLength":8309940,
			"byteOffset":123997504,
			"target":34962
		},
		{
			"buffer":0,
			"byteLength":8309940,
			"byteOffset":132307444,
			"target":34962
		},
		{
			"buffer":0,
			"byteLength":5539960,
			"byteOffset":140617384,
			"target":34962
		},
		{
			"buffer":0,
			"byteLength":4960176,
			"byteOffset":146157344,
			"target":34963
		},
		{
			"buffer":0,
			"byteLength":192,
			"byteOffset":151117520,
			"target":34962
		},
		{
			"buffer":0,
			"byteLength":192,
			"byteOffset":151117712,
			"target":34962
		},
		{
			"buffer":0,
			"byteLength":128,
			"byteOffset":151117904,
			"target":34962
		},
		{
			"buffer":0,
			"byteLength":48,
			"byteOffset":151118032,
			"target":34963
		},
		{
			"buffer":0,
			"byteLength":31704,
			"byteOffset":151118080,
			"target":34962
		},
		{
			"buffer":0,
			"byteLength":31704,
			"byteOffset":151149784,
			"target":34962
		},
		{
			"buffer":0,
			"byteLength":21136,
			"byteOffset":151181488,
			"target":34962
		},
		{
			"buffer":0,
			"byteLength":8124,
			"byteOffset":151202624,
			"target":34963
		},
		{
			"buffer":0,
			"byteLength":4217760,
			"byteOffset":151210748,
			"target":34962
		},
		{
			"buffer":0,
			"byteLength":4217760,
			"byteOffset":155428508,
			"target":34962
		},
		{
			"buffer":0,
			"byteLength":2811840,
			"byteOffset":159646268,
			"target":34962
		},
		{
			"buffer":0,
			"byteLength":2176752,
			"byteOffset":162458108,
			"target":34963
		}
	],
	"samplers":[
		{
			"magFilter":9729,
			"minFilter":9987
		}
	],
	"buffers":[
		{
			"byteLength":164634860,
			"uri":"untitled1jj2.bin"
		}
	]
}
